<svg xmlns="http://www.w3.org/2000/svg" version="1.1" xmlns:xlink="http://www.w3.org/1999/xlink" viewBox="0 0 200 200"><rect width="200" height="200" fill="url('#gradient')"></rect><defs><linearGradient id="gradient" gradientTransform="rotate(45 0.5 0.5)"><stop offset="0%" stop-color="#dbd4c9"></stop><stop offset="100%" stop-color="#ece5e3"></stop></linearGradient></defs><g><g fill="#1052cc" transform="matrix(2.598618356125758,0,0,2.598618356125758,7.540102417808853,112.92871134448889)" stroke="#739bab" stroke-width="0.1"><path d="M0.95-10.57L4.03-10.57L4.14-9.33Q5.26-10.76 7.16-10.76L7.16-10.76Q9.16-10.76 9.86-9.17L9.86-9.17Q10.94-10.76 12.97-10.76L12.97-10.76Q16.18-10.76 16.27-6.88L16.27-6.88L16.27 0L12.97 0L12.97-6.67Q12.97-7.48 12.70-7.85Q12.42-8.22 11.70-8.22L11.70-8.22Q10.72-8.22 10.24-7.35L10.24-7.35L10.25-7.22L10.25 0L6.95 0L6.95-6.65Q6.95-7.48 6.69-7.85Q6.43-8.22 5.68-8.22L5.68-8.22Q4.74-8.22 4.24-7.35L4.24-7.35L4.24 0L0.95 0L0.95-10.57ZM20.70-10.57L22.37-4.61L24.13-10.57L27.66-10.57L23.35 1.77L23.16 2.22Q22.25 4.27 19.92 4.27L19.92 4.27Q19.28 4.27 18.56 4.07L18.56 4.07L18.56 1.72L18.99 1.72Q19.69 1.72 20.05 1.52Q20.42 1.32 20.60 0.80L20.60 0.80L20.86 0.10L17.19-10.57L20.70-10.57ZM40.54-14.22L40.54 0L37.13 0L32.09-8.85L32.09 0L28.66 0L28.66-14.22L32.09-14.22L37.12-5.37L37.12-14.22L40.54-14.22ZM42.15-4.82L42.14-5.38Q42.14-6.96 42.75-8.20Q43.37-9.43 44.52-10.10Q45.67-10.76 47.23-10.76L47.23-10.76Q49.60-10.76 50.97-9.29Q52.33-7.82 52.33-5.29L52.33-5.29L52.33-5.18Q52.33-2.71 50.96-1.25Q49.59 0.20 47.25 0.20L47.25 0.20Q44.99 0.20 43.62-1.16Q42.26-2.51 42.15-4.82L42.15-4.82ZM45.44-5.77L45.43-5.18Q45.43-3.71 45.89-3.03Q46.35-2.34 47.25-2.34L47.25-2.34Q49.00-2.34 49.04-5.05L49.04-5.05L49.04-5.38Q49.04-8.22 47.23-8.22L47.23-8.22Q45.58-8.22 45.44-5.77L45.44-5.77ZM54.33-13.19L57.62-13.19L57.62-10.57L59.36-10.57L59.36-8.28L57.62-8.28L57.62-3.45Q57.62-2.85 57.83-2.62Q58.05-2.38 58.68-2.38L58.68-2.38Q59.17-2.38 59.50-2.44L59.50-2.44L59.50-0.09Q58.61 0.20 57.65 0.20L57.65 0.20Q55.95 0.20 55.14-0.61Q54.33-1.41 54.33-3.04L54.33-3.04L54.33-8.28L52.98-8.28L52.98-10.57L54.33-10.57L54.33-13.19ZM65.76 0.20L65.76 0.20Q63.33 0.20 61.83-1.25Q60.32-2.71 60.32-5.03L60.32-5.03L60.32-5.30Q60.32-6.92 60.92-8.16Q61.52-9.40 62.68-10.08Q63.83-10.76 65.41-10.76L65.41-10.76Q67.64-10.76 68.93-9.38Q70.21-8.00 70.21-5.53L70.21-5.53L70.21-4.25L63.67-4.25Q63.85-3.36 64.44-2.85Q65.04-2.34 65.99-2.34L65.99-2.34Q67.55-2.34 68.43-3.44L68.43-3.44L69.93-1.66Q69.32-0.81 68.19-0.31Q67.06 0.20 65.76 0.20ZM65.39-8.22L65.39-8.22Q63.95-8.22 63.67-6.31L63.67-6.31L66.99-6.31L66.99-6.56Q67.01-7.35 66.59-7.79Q66.17-8.22 65.39-8.22Z"></path></g></g></svg>